<?xml version="1.0" encoding="utf-8"?>
<!DOCTYPE svg PUBLIC "-//W3C//DTD SVG 1.0//EN" "http://www.w3.org/TR/SVG/DTD/svg10.dtd">
<svg width="100%" height="100%" viewBox="0 0 480 250" xmlns="http://www.w3.org/2000/svg" xmlns:xlink="http://www.w3.org/1999/xlink" xml:space="preserve">
    <style type="text/css">
        text {
            font-family: "Lucida Grande", Verdana, sans-serif;
            font-size: 11px;
            font-weight: normal;
            fill: #4c4c4c;
            }

        tspan {
            fill: #4c4c4c;
            text-decoration: underline;
            }
        
        tspan:hover {
            fill: #3c3c3c;
            text-decoration: none;
            cursor: pointer;
            }
    </style>
    <title>Fresh View for WP-SlimStat-Ex, Error</title>
    <desc>An error occurred while attempting to access the Fresh View pepper.</desc>
    <g transform="translate(22,80)">
        <polygon fill="#666666" points="62.02,68.47 56.09,65.39 56.51,72.06 51.2,68 50.45,74.64 45.93,69.71 44.04,76.13 40.44,70.49 
            37.47,76.48 34.9,70.31 30.94,75.69 29.48,69.16 24.64,73.77 24.34,67.09 18.77,70.79 19.63,64.16 13.51,66.83 15.51,60.46 
            9.01,62.03 12.09,56.09 5.42,56.51 9.48,51.2 2.84,50.45 7.77,45.93 1.35,44.04 6.99,40.44 1,37.47 7.17,34.9 1.79,30.94 
            8.32,29.48 3.71,24.64 10.39,24.34 6.69,18.77 13.32,19.64 10.65,13.51 17.02,15.51 15.45,9.01 21.39,12.09 20.97,5.42 
            26.28,9.48 27.02,2.84 31.55,7.77 33.44,1.35 37.04,6.99 40.01,1 42.57,7.17 46.54,1.79 48,8.32 52.84,3.71 53.14,10.39 
            58.71,6.69 57.84,13.32 63.97,10.65 61.97,17.02 68.47,15.45 65.39,21.39 72.06,20.97 67.99,26.28 74.64,27.03 69.71,31.55 
            76.13,33.44 68.9,37.12 76.48,40.01 68.73,42.38 75.68,46.54 69.16,48 73.77,52.84 67.09,53.14 70.79,58.71 64.16,57.84 
            66.83,63.97 60.46,61.97 "/>
        <polygon fill="#ffdd59" points="61.02,67.47 55.09,64.39 55.51,71.06 50.2,67 49.45,73.64 44.93,68.71 43.04,75.13 39.44,69.49 
            36.47,75.48 33.9,69.31 29.94,74.69 28.48,68.16 23.64,72.77 23.34,66.09 17.77,69.79 18.63,63.16 12.51,65.83 14.51,59.46 
            8.01,61.03 11.09,55.09 4.42,55.51 8.48,50.2 1.84,49.45 6.77,44.93 0.35,43.04 5.99,39.44 0,36.47 6.17,33.9 0.79,29.94 
            7.32,28.48 2.71,23.64 9.39,23.34 5.69,17.77 12.32,18.64 9.65,12.51 16.02,14.51 14.45,8.01 20.39,11.09 19.97,4.42 25.28,8.48 
            26.02,1.84 30.55,6.77 32.44,0.35 36.04,5.99 39.01,0 41.57,6.17 45.54,0.79 47,7.32 51.84,2.71 52.14,9.39 57.71,5.69 
            56.84,12.32 62.97,9.65 60.97,16.02 67.47,14.45 64.39,20.39 71.06,19.97 66.99,25.28 73.64,26.03 68.71,30.55 75.13,32.44 
            67.9,36.12 75.48,39.01 67.73,41.38 74.68,45.54 68.16,47 72.77,51.84 66.09,52.14 69.79,57.71 63.16,56.84 65.83,62.97 
            59.46,60.97 "/>
        <path fill="#808080" d="M44.77,24.92l-4.29,22.01c0,0.26-0.16,0.45-0.49,0.56c-0.33,0.11-0.62,0.17-0.89,0.17
            c-0.31,0-0.61-0.05-0.92-0.14c-0.31-0.09-0.48-0.29-0.52-0.59l-4.29-22.01c-0.26-1.17,0.06-2.34,0.96-3.53
            c0.9-1.19,2.48-1.78,4.74-1.78c2.14,0,3.68,0.6,4.62,1.81C44.64,22.62,45,23.79,44.77,24.92z M43.79,55.93
            c0,1.24-0.47,2.31-1.41,3.23c-0.94,0.92-2.04,1.38-3.3,1.38c-1.26,0-2.37-0.46-3.3-1.38c-0.94-0.92-1.41-1.99-1.41-3.23
            c0-1.31,0.45-2.41,1.35-3.29c0.9-0.88,2.02-1.32,3.36-1.32c1.26,0,2.37,0.46,3.3,1.38C43.32,53.62,43.79,54.69,43.79,55.93z"/>
        <path fill="#ffffff" d="M43.65,23.79l-4.29,22.01c0,0.26-0.16,0.45-0.49,0.56c-0.33,0.11-0.62,0.17-0.89,0.17
            c-0.31,0-0.61-0.05-0.92-0.14c-0.31-0.09-0.48-0.29-0.52-0.59l-4.29-22.01c-0.26-1.17,0.06-2.34,0.96-3.53
            c0.9-1.19,2.48-1.78,4.74-1.78c2.14,0,3.68,0.6,4.62,1.81C43.51,21.5,43.87,22.66,43.65,23.79z M42.66,54.8
            c0,1.24-0.47,2.31-1.41,3.23c-0.94,0.92-2.04,1.38-3.3,1.38c-1.26,0-2.37-0.46-3.3-1.38c-0.94-0.92-1.41-1.99-1.41-3.23
            c0-1.31,0.45-2.41,1.35-3.29c0.9-0.88,2.02-1.32,3.36-1.32c1.26,0,2.37,0.46,3.3,1.38C42.19,52.49,42.66,53.57,42.66,54.8z"/>
    </g>
    <text x="120" y="98">%err_msg%</text>
</svg>